<svg width="104" height="104" viewBox="0 0 104 104" fill="none"
xmlns="http://www.w3.org/2000/svg">
<path
d="M100.533 69.6547V47.0311C100.534 45.4272 100.089 43.8548 99.2469 42.4898L87.9316 24.0956C86.6629 22.0536 84.4319 20.809 82.0278 20.8023H67.5998V19.0691C67.5941 14.2851 63.7173 10.4082 58.9331 10.4023H15.5998C10.8158 10.408 6.93895 14.2849 6.93306 19.0691V26.0023H3.46653C2.5092 26.0023 1.73327 26.7783 1.73327 27.7356C1.73327 28.6929 2.50941 29.4689 3.46653 29.4689H6.93327V39.8689H1.73327C0.775938 39.8689 0 40.645 0 41.6021C0 42.5593 0.776141 43.3354 1.73327 43.3354H6.93327V53.7354H3.46653C2.5092 53.7354 1.73327 54.5115 1.73327 55.4687C1.73327 56.4258 2.50941 57.2019 3.46653 57.2019H6.93327V64.1352C6.9422 66.1238 7.64116 68.0476 8.91109 69.5779C6.71572 70.2304 5.20772 72.245 5.2 74.5352V78.0019C5.2 80.8737 7.52822 83.2019 10.4 83.2019H15.7387C16.5955 89.1677 21.7063 93.5971 27.7335 93.5971C33.7606 93.5971 38.8714 89.1677 39.7282 83.2019H69.4722C70.329 89.1677 75.4398 93.5971 81.4669 93.5971C87.4941 93.5971 92.6049 89.1677 93.4617 83.2019H98.7998C101.672 83.2019 104 80.8737 104 78.0019V74.5352C103.991 72.3398 102.603 70.3866 100.533 69.6547ZM69.4718 79.7356H39.7278C39.3494 77.1001 38.1119 74.663 36.2074 72.8023H72.9921C71.0877 74.663 69.8502 77.1001 69.4718 79.7356ZM67.5998 69.3356V46.8023H97.0509C97.0509 46.8785 97.0665 46.9549 97.0665 47.0311V58.9356H91.8665C88.9948 58.9356 86.6665 61.2638 86.6665 64.1356V69.3356H67.5998ZM90.1331 64.1356C90.1331 63.1783 90.909 62.4023 91.8663 62.4023H97.0663V69.3356H90.1331V64.1356ZM82.0282 24.2691C83.229 24.2748 84.3424 24.8984 84.9749 25.9193L95.6973 43.3358H67.5998V24.2691H82.0282ZM31.1998 53.7356H10.3998V43.3356H25.9998C26.9571 43.3356 27.7331 42.5597 27.7331 41.6023C27.7331 40.645 26.9569 39.8691 25.9998 39.8691H10.3998V29.4691H31.1998C32.1571 29.4691 32.9331 28.6929 32.9331 27.7358C32.9331 26.7787 32.1569 26.0025 31.1998 26.0025H10.3998V19.0691C10.3998 16.1973 12.728 13.8691 15.5998 13.8691H58.9331C61.8048 13.8691 64.1331 16.1973 64.1331 19.0691V69.3358H15.5998C12.728 69.3358 10.3998 67.0076 10.3998 64.1358V57.2025H31.1998C32.1571 57.2025 32.9331 56.4266 32.9331 55.4693C32.9331 54.5119 32.1571 53.7356 31.1998 53.7356ZM8.66653 78.0023V74.5356C8.66653 73.5783 9.44267 72.8023 10.3998 72.8023H19.2589C17.3542 74.663 16.1168 77.1001 15.7385 79.7356H10.3998C9.44247 79.7356 8.66653 78.9597 8.66653 78.0023ZM27.7331 90.1356C22.9466 90.1356 19.0663 86.2553 19.0663 81.4689C19.0663 76.6824 22.9466 72.8021 27.7331 72.8021C32.5195 72.8021 36.3998 76.6824 36.3998 81.4689C36.3941 86.2531 32.5173 90.1299 27.7331 90.1356ZM81.4665 90.1356C76.6801 90.1356 72.7998 86.2553 72.7998 81.4689C72.7998 76.6824 76.6801 72.8021 81.4665 72.8021C86.253 72.8021 90.1333 76.6824 90.1333 81.4689C90.1274 86.2531 86.2505 90.1299 81.4665 90.1356ZM100.533 78.0023C100.533 78.9597 99.7571 79.7356 98.7998 79.7356H93.4611C93.0826 77.1001 91.8452 74.663 89.9407 72.8023H98.7998C99.7571 72.8023 100.533 73.5785 100.533 74.5356V78.0023Z"
fill="white" /><path
d="M100.533 69.6547V47.0311C100.534 45.4272 100.089 43.8548 99.2469 42.4898L87.9316 24.0956C86.6629 22.0536 84.4319 20.809 82.0278 20.8023H67.5998V19.0691C67.5941 14.2851 63.7173 10.4082 58.9331 10.4023H15.5998C10.8158 10.408 6.93895 14.2849 6.93306 19.0691V26.0023H3.46653C2.5092 26.0023 1.73327 26.7783 1.73327 27.7356C1.73327 28.6929 2.50941 29.4689 3.46653 29.4689H6.93327V39.8689H1.73327C0.775938 39.8689 0 40.645 0 41.6021C0 42.5593 0.776141 43.3354 1.73327 43.3354H6.93327V53.7354H3.46653C2.5092 53.7354 1.73327 54.5115 1.73327 55.4687C1.73327 56.4258 2.50941 57.2019 3.46653 57.2019H6.93327V64.1352C6.9422 66.1238 7.64116 68.0476 8.91109 69.5779C6.71572 70.2304 5.20772 72.245 5.2 74.5352V78.0019C5.2 80.8737 7.52822 83.2019 10.4 83.2019H15.7387C16.5955 89.1677 21.7063 93.5971 27.7335 93.5971C33.7606 93.5971 38.8714 89.1677 39.7282 83.2019H69.4722C70.329 89.1677 75.4398 93.5971 81.4669 93.5971C87.4941 93.5971 92.6049 89.1677 93.4617 83.2019H98.7998C101.672 83.2019 104 80.8737 104 78.0019V74.5352C103.991 72.3398 102.603 70.3866 100.533 69.6547ZM69.4718 79.7356H39.7278C39.3494 77.1001 38.1119 74.663 36.2074 72.8023H72.9921C71.0877 74.663 69.8502 77.1001 69.4718 79.7356ZM67.5998 69.3356V46.8023H97.0509C97.0509 46.8785 97.0665 46.9549 97.0665 47.0311V58.9356H91.8665C88.9948 58.9356 86.6665 61.2638 86.6665 64.1356V69.3356H67.5998ZM90.1331 64.1356C90.1331 63.1783 90.909 62.4023 91.8663 62.4023H97.0663V69.3356H90.1331V64.1356ZM82.0282 24.2691C83.229 24.2748 84.3424 24.8984 84.9749 25.9193L95.6973 43.3358H67.5998V24.2691H82.0282ZM31.1998 53.7356H10.3998V43.3356H25.9998C26.9571 43.3356 27.7331 42.5597 27.7331 41.6023C27.7331 40.645 26.9569 39.8691 25.9998 39.8691H10.3998V29.4691H31.1998C32.1571 29.4691 32.9331 28.6929 32.9331 27.7358C32.9331 26.7787 32.1569 26.0025 31.1998 26.0025H10.3998V19.0691C10.3998 16.1973 12.728 13.8691 15.5998 13.8691H58.9331C61.8048 13.8691 64.1331 16.1973 64.1331 19.0691V69.3358H15.5998C12.728 69.3358 10.3998 67.0076 10.3998 64.1358V57.2025H31.1998C32.1571 57.2025 32.9331 56.4266 32.9331 55.4693C32.9331 54.5119 32.1571 53.7356 31.1998 53.7356ZM8.66653 78.0023V74.5356C8.66653 73.5783 9.44267 72.8023 10.3998 72.8023H19.2589C17.3542 74.663 16.1168 77.1001 15.7385 79.7356H10.3998C9.44247 79.7356 8.66653 78.9597 8.66653 78.0023ZM27.7331 90.1356C22.9466 90.1356 19.0663 86.2553 19.0663 81.4689C19.0663 76.6824 22.9466 72.8021 27.7331 72.8021C32.5195 72.8021 36.3998 76.6824 36.3998 81.4689C36.3941 86.2531 32.5173 90.1299 27.7331 90.1356ZM81.4665 90.1356C76.6801 90.1356 72.7998 86.2553 72.7998 81.4689C72.7998 76.6824 76.6801 72.8021 81.4665 72.8021C86.253 72.8021 90.1333 76.6824 90.1333 81.4689C90.1274 86.2531 86.2505 90.1299 81.4665 90.1356ZM100.533 78.0023C100.533 78.9597 99.7571 79.7356 98.7998 79.7356H93.4611C93.0826 77.1001 91.8452 74.663 89.9407 72.8023H98.7998C99.7571 72.8023 100.533 73.5785 100.533 74.5356V78.0023Z"
fill="url(#paint0_linear_195_813)" /><path fill-rule="evenodd" clip-rule="evenodd"
d="M81.4664 50.269H72.7997C71.8423 50.269 71.0664 51.045 71.0664 52.0023C71.0664 52.9596 71.8423 53.7356 72.7997 53.7356H81.4664C82.4237 53.7356 83.1997 52.9596 83.1997 52.0023C83.1997 51.045 82.4237 50.269 81.4664 50.269Z"
fill="white" /><path fill-rule="evenodd" clip-rule="evenodd"
d="M81.4664 50.269H72.7997C71.8423 50.269 71.0664 51.045 71.0664 52.0023C71.0664 52.9596 71.8423 53.7356 72.7997 53.7356H81.4664C82.4237 53.7356 83.1997 52.9596 83.1997 52.0023C83.1997 51.045 82.4237 50.269 81.4664 50.269Z"
fill="url(#paint1_linear_195_813)" /><defs>
<linearGradient id="paint0_linear_195_813" x1="104" y1="95.9969" x2="4.67335"
y2="74.4519" gradientUnits="userSpaceOnUse">
<stop stop-color="#057CED" /><stop offset="0.491436" stop-color="#002EBA" /><stop offset="1" stop-color="#00238D" /></linearGradient>
<linearGradient id="paint1_linear_195_813" x1="83.1997" y1="53.8356"
x2="74.3359" y2="48.4523" gradientUnits="userSpaceOnUse">
<stop stop-color="#057CED" /><stop offset="0.491436" stop-color="#002EBA" /><stop offset="1" stop-color="#00238D" /></linearGradient>
</defs>
</svg>