<svg width="105" height="104" viewBox="0 0 105 104" fill="none"
xmlns="http://www.w3.org/2000/svg">
<g clip-path="url(#clip0_195_790)">
<path
d="M102.394 47.4182C101.088 46.6236 99.46 46.5762 98.1098 47.2935L85.9081 53.715L82.1159 16.9903C82.0747 16.5795 81.9609 16.1793 81.7797 15.8084C83.5698 13.6013 84.1596 10.6551 83.3571 7.92903C82.5546 5.20301 80.4625 3.04625 77.7622 2.16113C75.6884 1.48305 73.4338 1.62558 71.462 2.5598C68.2136 -0.1989 63.6292 -0.745063 59.8235 1.17318C57.4212 -0.426982 54.2756 -0.357856 51.9461 1.34651C49.8153 0.01515 47.2188 -0.346563 44.8052 0.351711C43.3346 0.79812 42.0103 1.62985 40.9696 2.76085C38.6022 1.47244 35.76 1.39972 33.3297 2.56494C31.4403 0.913615 29.0158 0.00385722 26.5064 0.00505495C24.8316 0.00471274 23.181 0.404068 21.6915 1.16976C19.2921 -0.435195 16.1432 -0.360251 13.8228 1.35694C11.6994 0.0161766 9.10208 -0.346734 6.69242 0.360437C3.87897 1.17763 1.67755 3.37511 0.855055 6.1872C0.161743 8.59925 0.492658 11.1903 1.77012 13.3504C0.64648 14.9474 0.24644 16.9433 0.667868 18.8499C1.09203 20.7893 2.33544 22.4499 4.07711 23.403C5.5344 24.245 7.26442 24.4802 8.89367 24.0581C10.444 25.3145 12.3785 26.001 14.3739 26.0027C16.7809 25.9796 19.0807 25.0036 20.7695 23.2885C22.2623 24.0509 23.9412 24.3731 25.6103 24.2174L22.6639 52.6591L3.20174 63.3601C1.54015 64.2741 0.508057 66.0202 0.508399 67.9166V98.7968C0.508399 101.668 2.83626 103.996 5.70807 103.996H99.3005C102.172 103.996 104.5 101.668 104.5 98.7968V51.1513C104.506 49.6227 103.706 48.2041 102.394 47.4182ZM82.6029 55.4551L71.5694 61.263V51.1515C71.5699 49.6241 70.7709 48.208 69.4633 47.4185C68.1557 46.6291 66.5304 46.5817 65.179 47.2935L64.8202 47.4824L66.3212 32.9356H80.2769L82.6029 55.4551ZM48.0535 56.3077L44.731 24.2054C45.4991 24.3021 46.2786 24.2509 47.0275 24.0547C48.5762 25.3121 50.5095 25.9998 52.5044 26.0029C54.9116 25.9731 57.2123 25.0057 58.9172 23.3059C60.4073 24.0557 62.0776 24.3733 63.7389 24.2229L61.1391 49.4218L48.0535 56.3077ZM40.5453 17.337L40.9041 20.8034H29.4408L29.7996 17.337H40.5453ZM29.0906 24.2698H41.2627L41.8 29.4694H28.5427L29.0906 24.2698ZM67.2208 24.2698H79.3895L79.9268 29.4694H66.6853L67.2208 24.2698ZM78.6755 17.337L79.0326 20.8034H67.5726L67.9297 17.337H78.6755ZM45.762 3.68635C47.2246 3.25021 48.8044 3.46768 50.0951 4.28264C51.2851 5.02558 52.8079 4.96723 53.9375 4.13532C55.1168 3.28254 56.7021 3.25346 57.9118 4.0626C58.9498 4.75575 60.2812 4.83462 61.3937 4.26878C63.9353 2.94667 67.0265 3.30941 69.1931 5.18385C70.2215 6.06229 71.6687 6.25803 72.8934 5.68467C74.3322 5.01822 75.9971 5.04799 77.4111 5.7656C78.8251 6.48321 79.832 7.80943 80.1434 9.36425C80.4605 10.993 79.9725 12.6748 78.8331 13.8809C78.7794 13.8809 78.7291 13.8653 78.6754 13.8653H67.9295C66.149 13.8593 64.6577 15.2122 64.491 16.985L64.1167 20.6456C62.9049 20.9237 61.6343 20.7762 60.5185 20.228C59.1078 19.4597 57.3558 19.7451 56.2618 20.9213C54.3617 22.8224 51.3429 23.0104 49.2216 21.3598C48.4321 20.713 47.3851 20.4737 46.3931 20.7134C45.7119 20.8477 45.0068 20.7875 44.3583 20.54L43.9856 16.9905C43.9444 16.5792 43.8306 16.1783 43.6494 15.8068C45.2434 13.8205 45.8887 11.2361 45.4156 8.73373C45.1452 7.35566 44.5378 6.06589 43.6477 4.97972C44.2341 4.37932 44.9608 3.93496 45.762 3.68635ZM22.364 20.2105C20.9489 19.4652 19.2098 19.7598 18.1194 20.9298C16.2248 22.8452 13.1942 23.033 11.0775 21.3667C10.2745 20.7252 9.22236 20.4865 8.22123 20.7185C7.37273 20.9093 6.48351 20.7789 5.72552 20.3529C4.87188 19.8887 4.26224 19.0766 4.05469 18.1275C3.83602 17.1642 4.03296 16.1531 4.59726 15.3423C5.43344 14.1757 5.49008 12.6219 4.74116 11.3975C3.96007 10.1234 3.76074 8.57632 4.19346 7.14589C4.69137 5.48653 5.98987 4.18871 7.64941 3.69165C9.10379 3.25123 10.6778 3.46716 11.9598 4.28264C13.1545 5.02677 14.6828 4.96415 15.8128 4.12489C16.9903 3.29657 18.553 3.26714 19.761 4.05029C20.8042 4.76533 22.1563 4.84865 23.2794 4.2669C25.8155 2.97986 28.8758 3.33695 31.0475 5.17341C32.0736 6.05767 33.5237 6.25581 34.7496 5.67953C35.9498 5.13474 37.3111 5.06185 38.5627 5.47506C40.2344 6.0226 41.5098 7.38715 41.9434 9.09202C42.3769 10.7967 41.9084 12.605 40.7015 13.8846C40.6495 13.8846 40.5992 13.8708 40.5454 13.8708H29.7996C28.0189 13.8648 26.5278 15.2177 26.361 16.9905L25.9797 20.6511C24.7623 20.9389 23.4821 20.7828 22.3694 20.2108H22.364V20.2105ZM28.1841 32.9356H42.1502L44.75 58.0461L38.6387 61.2629V51.2432C38.6368 49.7026 37.8218 48.2776 36.4951 47.4947C35.1683 46.7117 33.5268 46.6872 32.1773 47.4302L26.3538 50.6349L28.1841 32.9356ZM3.97479 98.797V95.3306H10.9076V100.53H5.70807C4.75074 100.53 3.97479 99.7542 3.97479 98.797ZM29.9728 100.53H14.3739V88.398C14.3739 87.4409 15.1499 86.6649 16.1072 86.6649H28.2397C29.1968 86.6649 29.9729 87.4409 29.9729 88.398V100.53H29.9728ZM99.3005 100.53H33.4392V95.3308H36.9056C37.8627 95.3308 38.6388 94.5548 38.6388 93.5975C38.6388 92.6402 37.8629 91.8644 36.9056 91.8644H33.4392V88.398C33.4392 85.5264 31.1113 83.1985 28.2395 83.1985H16.1072C13.2356 83.1985 10.9076 85.5264 10.9076 88.398V91.8644H3.97479V67.9167C3.97427 67.2842 4.31836 66.7016 4.87257 66.3967L33.8481 50.4599C33.979 50.387 34.1263 50.3482 34.2762 50.3473C34.437 50.3494 34.5946 50.393 34.7337 50.4738C35.0077 50.6327 35.1752 50.9267 35.1723 51.2432V64.133C35.1721 64.7402 35.4898 65.3033 36.0097 65.6171C36.5295 65.9309 37.1757 65.9497 37.713 65.6669L66.7943 50.361C67.0709 50.2142 67.4044 50.2234 67.6725 50.3853C67.9407 50.5472 68.1041 50.838 68.1029 51.1513V64.133C68.1027 64.7402 68.4204 65.3033 68.9402 65.6171C69.4601 65.9309 70.1063 65.9497 70.6436 65.6669L99.7249 50.361C100.002 50.2142 100.335 50.2234 100.603 50.3853C100.871 50.5472 101.035 50.838 101.033 51.1513V91.8641H71.5694C70.6123 91.8641 69.8361 92.64 69.8361 93.5972C69.8361 94.5543 70.6121 95.3304 71.5694 95.3304H101.034V98.7968C101.034 99.7542 100.258 100.53 99.3005 100.53Z"
fill="white" /><path
d="M102.394 47.4182C101.088 46.6236 99.46 46.5762 98.1098 47.2935L85.9081 53.715L82.1159 16.9903C82.0747 16.5795 81.9609 16.1793 81.7797 15.8084C83.5698 13.6013 84.1596 10.6551 83.3571 7.92903C82.5546 5.20301 80.4625 3.04625 77.7622 2.16113C75.6884 1.48305 73.4338 1.62558 71.462 2.5598C68.2136 -0.1989 63.6292 -0.745063 59.8235 1.17318C57.4212 -0.426982 54.2756 -0.357856 51.9461 1.34651C49.8153 0.01515 47.2188 -0.346563 44.8052 0.351711C43.3346 0.79812 42.0103 1.62985 40.9696 2.76085C38.6022 1.47244 35.76 1.39972 33.3297 2.56494C31.4403 0.913615 29.0158 0.00385722 26.5064 0.00505495C24.8316 0.00471274 23.181 0.404068 21.6915 1.16976C19.2921 -0.435195 16.1432 -0.360251 13.8228 1.35694C11.6994 0.0161766 9.10208 -0.346734 6.69242 0.360437C3.87897 1.17763 1.67755 3.37511 0.855055 6.1872C0.161743 8.59925 0.492658 11.1903 1.77012 13.3504C0.64648 14.9474 0.24644 16.9433 0.667868 18.8499C1.09203 20.7893 2.33544 22.4499 4.07711 23.403C5.5344 24.245 7.26442 24.4802 8.89367 24.0581C10.444 25.3145 12.3785 26.001 14.3739 26.0027C16.7809 25.9796 19.0807 25.0036 20.7695 23.2885C22.2623 24.0509 23.9412 24.3731 25.6103 24.2174L22.6639 52.6591L3.20174 63.3601C1.54015 64.2741 0.508057 66.0202 0.508399 67.9166V98.7968C0.508399 101.668 2.83626 103.996 5.70807 103.996H99.3005C102.172 103.996 104.5 101.668 104.5 98.7968V51.1513C104.506 49.6227 103.706 48.2041 102.394 47.4182ZM82.6029 55.4551L71.5694 61.263V51.1515C71.5699 49.6241 70.7709 48.208 69.4633 47.4185C68.1557 46.6291 66.5304 46.5817 65.179 47.2935L64.8202 47.4824L66.3212 32.9356H80.2769L82.6029 55.4551ZM48.0535 56.3077L44.731 24.2054C45.4991 24.3021 46.2786 24.2509 47.0275 24.0547C48.5762 25.3121 50.5095 25.9998 52.5044 26.0029C54.9116 25.9731 57.2123 25.0057 58.9172 23.3059C60.4073 24.0557 62.0776 24.3733 63.7389 24.2229L61.1391 49.4218L48.0535 56.3077ZM40.5453 17.337L40.9041 20.8034H29.4408L29.7996 17.337H40.5453ZM29.0906 24.2698H41.2627L41.8 29.4694H28.5427L29.0906 24.2698ZM67.2208 24.2698H79.3895L79.9268 29.4694H66.6853L67.2208 24.2698ZM78.6755 17.337L79.0326 20.8034H67.5726L67.9297 17.337H78.6755ZM45.762 3.68635C47.2246 3.25021 48.8044 3.46768 50.0951 4.28264C51.2851 5.02558 52.8079 4.96723 53.9375 4.13532C55.1168 3.28254 56.7021 3.25346 57.9118 4.0626C58.9498 4.75575 60.2812 4.83462 61.3937 4.26878C63.9353 2.94667 67.0265 3.30941 69.1931 5.18385C70.2215 6.06229 71.6687 6.25803 72.8934 5.68467C74.3322 5.01822 75.9971 5.04799 77.4111 5.7656C78.8251 6.48321 79.832 7.80943 80.1434 9.36425C80.4605 10.993 79.9725 12.6748 78.8331 13.8809C78.7794 13.8809 78.7291 13.8653 78.6754 13.8653H67.9295C66.149 13.8593 64.6577 15.2122 64.491 16.985L64.1167 20.6456C62.9049 20.9237 61.6343 20.7762 60.5185 20.228C59.1078 19.4597 57.3558 19.7451 56.2618 20.9213C54.3617 22.8224 51.3429 23.0104 49.2216 21.3598C48.4321 20.713 47.3851 20.4737 46.3931 20.7134C45.7119 20.8477 45.0068 20.7875 44.3583 20.54L43.9856 16.9905C43.9444 16.5792 43.8306 16.1783 43.6494 15.8068C45.2434 13.8205 45.8887 11.2361 45.4156 8.73373C45.1452 7.35566 44.5378 6.06589 43.6477 4.97972C44.2341 4.37932 44.9608 3.93496 45.762 3.68635ZM22.364 20.2105C20.9489 19.4652 19.2098 19.7598 18.1194 20.9298C16.2248 22.8452 13.1942 23.033 11.0775 21.3667C10.2745 20.7252 9.22236 20.4865 8.22123 20.7185C7.37273 20.9093 6.48351 20.7789 5.72552 20.3529C4.87188 19.8887 4.26224 19.0766 4.05469 18.1275C3.83602 17.1642 4.03296 16.1531 4.59726 15.3423C5.43344 14.1757 5.49008 12.6219 4.74116 11.3975C3.96007 10.1234 3.76074 8.57632 4.19346 7.14589C4.69137 5.48653 5.98987 4.18871 7.64941 3.69165C9.10379 3.25123 10.6778 3.46716 11.9598 4.28264C13.1545 5.02677 14.6828 4.96415 15.8128 4.12489C16.9903 3.29657 18.553 3.26714 19.761 4.05029C20.8042 4.76533 22.1563 4.84865 23.2794 4.2669C25.8155 2.97986 28.8758 3.33695 31.0475 5.17341C32.0736 6.05767 33.5237 6.25581 34.7496 5.67953C35.9498 5.13474 37.3111 5.06185 38.5627 5.47506C40.2344 6.0226 41.5098 7.38715 41.9434 9.09202C42.3769 10.7967 41.9084 12.605 40.7015 13.8846C40.6495 13.8846 40.5992 13.8708 40.5454 13.8708H29.7996C28.0189 13.8648 26.5278 15.2177 26.361 16.9905L25.9797 20.6511C24.7623 20.9389 23.4821 20.7828 22.3694 20.2108H22.364V20.2105ZM28.1841 32.9356H42.1502L44.75 58.0461L38.6387 61.2629V51.2432C38.6368 49.7026 37.8218 48.2776 36.4951 47.4947C35.1683 46.7117 33.5268 46.6872 32.1773 47.4302L26.3538 50.6349L28.1841 32.9356ZM3.97479 98.797V95.3306H10.9076V100.53H5.70807C4.75074 100.53 3.97479 99.7542 3.97479 98.797ZM29.9728 100.53H14.3739V88.398C14.3739 87.4409 15.1499 86.6649 16.1072 86.6649H28.2397C29.1968 86.6649 29.9729 87.4409 29.9729 88.398V100.53H29.9728ZM99.3005 100.53H33.4392V95.3308H36.9056C37.8627 95.3308 38.6388 94.5548 38.6388 93.5975C38.6388 92.6402 37.8629 91.8644 36.9056 91.8644H33.4392V88.398C33.4392 85.5264 31.1113 83.1985 28.2395 83.1985H16.1072C13.2356 83.1985 10.9076 85.5264 10.9076 88.398V91.8644H3.97479V67.9167C3.97427 67.2842 4.31836 66.7016 4.87257 66.3967L33.8481 50.4599C33.979 50.387 34.1263 50.3482 34.2762 50.3473C34.437 50.3494 34.5946 50.393 34.7337 50.4738C35.0077 50.6327 35.1752 50.9267 35.1723 51.2432V64.133C35.1721 64.7402 35.4898 65.3033 36.0097 65.6171C36.5295 65.9309 37.1757 65.9497 37.713 65.6669L66.7943 50.361C67.0709 50.2142 67.4044 50.2234 67.6725 50.3853C67.9407 50.5472 68.1041 50.838 68.1029 51.1513V64.133C68.1027 64.7402 68.4204 65.3033 68.9402 65.6171C69.4601 65.9309 70.1063 65.9497 70.6436 65.6669L99.7249 50.361C100.002 50.2142 100.335 50.2234 100.603 50.3853C100.871 50.5472 101.035 50.838 101.033 51.1513V91.8641H71.5694C70.6123 91.8641 69.8361 92.64 69.8361 93.5972C69.8361 94.5543 70.6121 95.3304 71.5694 95.3304H101.034V98.7968C101.034 99.7542 100.258 100.53 99.3005 100.53Z"
fill="url(#paint0_linear_195_790)" /><path
d="M54.2375 72.7991C50.4087 72.7991 47.3047 75.9031 47.3047 79.7318C47.3047 83.5606 50.4087 86.6646 54.2375 86.6646C58.0664 86.6646 61.1702 83.5606 61.1702 79.7318C61.1702 75.9031 58.0662 72.7991 54.2375 72.7991ZM54.2375 83.1982C52.323 83.1982 50.7711 81.6463 50.7711 79.7318C50.7711 77.8174 52.323 76.2655 54.2375 76.2655C56.1519 76.2655 57.7039 77.8174 57.7039 79.7318C57.7039 81.6463 56.1518 83.1982 54.2375 83.1982Z"
fill="white" /><path
d="M54.2375 72.7991C50.4087 72.7991 47.3047 75.9031 47.3047 79.7318C47.3047 83.5606 50.4087 86.6646 54.2375 86.6646C58.0664 86.6646 61.1702 83.5606 61.1702 79.7318C61.1702 75.9031 58.0662 72.7991 54.2375 72.7991ZM54.2375 83.1982C52.323 83.1982 50.7711 81.6463 50.7711 79.7318C50.7711 77.8174 52.323 76.2655 54.2375 76.2655C56.1519 76.2655 57.7039 77.8174 57.7039 79.7318C57.7039 81.6463 56.1518 83.1982 54.2375 83.1982Z"
fill="url(#paint1_linear_195_790)" /><path
d="M67.049 85.8656C67.2711 85.4057 67.4684 84.9341 67.64 84.453L70.1877 83.6453C70.8189 83.4453 71.2809 82.9033 71.3784 82.2485C71.632 80.5826 71.632 78.888 71.3784 77.2221C71.2809 76.5673 70.8189 76.0252 70.1877 75.8252L67.64 75.0176C67.4684 74.5365 67.2711 74.0651 67.049 73.605L68.2847 71.2253C68.5901 70.6386 68.535 69.9292 68.1425 69.3967C67.6395 68.721 67.0868 68.0838 66.489 67.4903C65.8959 66.8934 65.2586 66.3425 64.5826 65.842C64.0508 65.4498 63.3424 65.3941 62.7557 65.6981L60.3777 66.9338C59.9176 66.7114 59.4453 66.5146 58.9633 66.3445L58.1521 63.7864C57.9521 63.1536 57.4084 62.6905 56.7517 62.594C55.0855 62.3447 53.3915 62.3447 51.7253 62.594C51.0688 62.6905 50.5249 63.1536 50.3248 63.7864L49.5189 66.3358C49.0369 66.5059 48.5649 66.7027 48.1046 66.9251L45.7232 65.6928C45.1366 65.3886 44.4281 65.4444 43.8965 65.8367C42.5401 66.8425 41.3393 68.0426 40.3331 69.3984C39.9401 69.9305 39.8843 70.6399 40.1892 71.227L41.4249 73.6067C41.2028 74.0666 41.0055 74.5382 40.8339 75.0193L38.2862 75.8269C37.655 76.027 37.193 76.569 37.0955 77.2238C36.8419 78.8897 36.8419 80.5843 37.0955 82.2502C37.193 82.905 37.655 83.447 38.2862 83.6471L40.8339 84.4547C41.0055 84.9358 41.2028 85.4074 41.4249 85.8673L40.1977 88.2453C39.8928 88.8323 39.9486 89.5417 40.3416 90.0739C41.3481 91.4297 42.5487 92.6298 43.905 93.6356C44.4356 94.0306 45.1459 94.0866 45.7319 93.7795L48.1099 92.5438C48.5702 92.7664 49.0424 92.9636 49.5242 93.1347L50.3301 95.6825C50.5302 96.3152 51.0739 96.7784 51.7306 96.8749C53.3967 97.1264 55.0909 97.1264 56.757 96.8749C57.4137 96.7784 57.9574 96.3152 58.1574 95.6825L58.9633 93.1347C59.4452 92.9636 59.9172 92.7664 60.3777 92.5438L62.7557 93.7795C63.3417 94.0866 64.0518 94.0306 64.5826 93.6356C65.2588 93.1344 65.8961 92.5829 66.489 91.9856C67.0861 91.3921 67.6383 90.7547 68.1407 90.0792C68.533 89.5467 68.5883 88.8373 68.2828 88.2506L67.049 85.8656ZM65.7404 81.4183C65.1859 81.5923 64.7564 82.0341 64.5983 82.5934C64.36 83.434 64.0212 84.2428 63.5896 85.0025C63.2976 85.514 63.2853 86.1387 63.5568 86.6612L64.6886 88.8416C64.4842 89.0728 64.2681 89.3037 64.0405 89.5349C63.8129 89.7661 63.5818 89.9827 63.3472 90.1849L61.1702 89.0496C60.6473 88.7786 60.0226 88.7916 59.5116 89.0844C58.7519 89.5159 57.9431 89.8547 57.1024 90.093C56.5431 90.2527 56.101 90.6823 55.9256 91.2369L55.1907 93.5611C54.5561 93.6101 53.9187 93.6101 53.2842 93.5611L52.5494 91.2369C52.374 90.6821 51.9318 90.2527 51.3725 90.093C50.5319 89.8545 49.7231 89.5159 48.9634 89.0844C48.4523 88.7918 47.8276 88.7788 47.3047 89.0496L45.1243 90.1832C44.8885 89.977 44.6581 89.7621 44.431 89.5351C44.204 89.308 43.989 89.0775 43.7829 88.8418L44.9181 86.6648C45.1897 86.1423 45.1772 85.5176 44.8853 85.0061C44.4536 84.2464 44.115 83.4376 43.8766 82.597C43.7185 82.0377 43.2891 81.5959 42.7345 81.4219L40.4085 80.6852C40.3842 80.3595 40.3721 80.044 40.3721 79.732C40.3721 79.4201 40.3842 79.1046 40.4085 78.7822L42.7345 78.0456C43.2891 77.8716 43.7185 77.4298 43.8766 76.8705C44.115 76.0299 44.4538 75.2211 44.8853 74.4614C45.1786 73.9491 45.191 73.3227 44.9181 72.7993L43.7863 70.6189C43.9925 70.3831 44.2074 70.1526 44.4344 69.9256C44.6615 69.6985 44.892 69.4819 45.1277 69.2756L47.3047 70.4142C47.8276 70.6853 48.4523 70.6721 48.9634 70.3795C49.722 69.9487 50.5297 69.6106 51.3691 69.3726C51.9298 69.214 52.3733 68.7841 52.5494 68.2287L53.2842 65.9028C53.9189 65.8538 54.5562 65.8538 55.1907 65.9028L55.9256 68.2287C56.1016 68.7841 56.5451 69.214 57.1058 69.3726C57.9451 69.6106 58.7529 69.9487 59.5116 70.3795C60.0226 70.6721 60.6473 70.6851 61.1702 70.4142L63.3506 69.2807C63.5864 69.4869 63.8169 69.7018 64.0439 69.9288C64.271 70.1559 64.4859 70.3864 64.6921 70.6221L63.5568 72.7991C63.2853 73.3216 63.2977 73.9463 63.5896 74.4578C64.0213 75.2175 64.36 76.0263 64.5983 76.8669C64.7564 77.4262 65.1859 77.868 65.7404 78.042L68.0664 78.7786C68.0907 79.101 68.1028 79.4165 68.1028 79.7284C68.1028 80.0404 68.0907 80.3559 68.0664 80.6782L65.7404 81.4183Z"
fill="white" /><path
d="M67.049 85.8656C67.2711 85.4057 67.4684 84.9341 67.64 84.453L70.1877 83.6453C70.8189 83.4453 71.2809 82.9033 71.3784 82.2485C71.632 80.5826 71.632 78.888 71.3784 77.2221C71.2809 76.5673 70.8189 76.0252 70.1877 75.8252L67.64 75.0176C67.4684 74.5365 67.2711 74.0651 67.049 73.605L68.2847 71.2253C68.5901 70.6386 68.535 69.9292 68.1425 69.3967C67.6395 68.721 67.0868 68.0838 66.489 67.4903C65.8959 66.8934 65.2586 66.3425 64.5826 65.842C64.0508 65.4498 63.3424 65.3941 62.7557 65.6981L60.3777 66.9338C59.9176 66.7114 59.4453 66.5146 58.9633 66.3445L58.1521 63.7864C57.9521 63.1536 57.4084 62.6905 56.7517 62.594C55.0855 62.3447 53.3915 62.3447 51.7253 62.594C51.0688 62.6905 50.5249 63.1536 50.3248 63.7864L49.5189 66.3358C49.0369 66.5059 48.5649 66.7027 48.1046 66.9251L45.7232 65.6928C45.1366 65.3886 44.4281 65.4444 43.8965 65.8367C42.5401 66.8425 41.3393 68.0426 40.3331 69.3984C39.9401 69.9305 39.8843 70.6399 40.1892 71.227L41.4249 73.6067C41.2028 74.0666 41.0055 74.5382 40.8339 75.0193L38.2862 75.8269C37.655 76.027 37.193 76.569 37.0955 77.2238C36.8419 78.8897 36.8419 80.5843 37.0955 82.2502C37.193 82.905 37.655 83.447 38.2862 83.6471L40.8339 84.4547C41.0055 84.9358 41.2028 85.4074 41.4249 85.8673L40.1977 88.2453C39.8928 88.8323 39.9486 89.5417 40.3416 90.0739C41.3481 91.4297 42.5487 92.6298 43.905 93.6356C44.4356 94.0306 45.1459 94.0866 45.7319 93.7795L48.1099 92.5438C48.5702 92.7664 49.0424 92.9636 49.5242 93.1347L50.3301 95.6825C50.5302 96.3152 51.0739 96.7784 51.7306 96.8749C53.3967 97.1264 55.0909 97.1264 56.757 96.8749C57.4137 96.7784 57.9574 96.3152 58.1574 95.6825L58.9633 93.1347C59.4452 92.9636 59.9172 92.7664 60.3777 92.5438L62.7557 93.7795C63.3417 94.0866 64.0518 94.0306 64.5826 93.6356C65.2588 93.1344 65.8961 92.5829 66.489 91.9856C67.0861 91.3921 67.6383 90.7547 68.1407 90.0792C68.533 89.5467 68.5883 88.8373 68.2828 88.2506L67.049 85.8656ZM65.7404 81.4183C65.1859 81.5923 64.7564 82.0341 64.5983 82.5934C64.36 83.434 64.0212 84.2428 63.5896 85.0025C63.2976 85.514 63.2853 86.1387 63.5568 86.6612L64.6886 88.8416C64.4842 89.0728 64.2681 89.3037 64.0405 89.5349C63.8129 89.7661 63.5818 89.9827 63.3472 90.1849L61.1702 89.0496C60.6473 88.7786 60.0226 88.7916 59.5116 89.0844C58.7519 89.5159 57.9431 89.8547 57.1024 90.093C56.5431 90.2527 56.101 90.6823 55.9256 91.2369L55.1907 93.5611C54.5561 93.6101 53.9187 93.6101 53.2842 93.5611L52.5494 91.2369C52.374 90.6821 51.9318 90.2527 51.3725 90.093C50.5319 89.8545 49.7231 89.5159 48.9634 89.0844C48.4523 88.7918 47.8276 88.7788 47.3047 89.0496L45.1243 90.1832C44.8885 89.977 44.6581 89.7621 44.431 89.5351C44.204 89.308 43.989 89.0775 43.7829 88.8418L44.9181 86.6648C45.1897 86.1423 45.1772 85.5176 44.8853 85.0061C44.4536 84.2464 44.115 83.4376 43.8766 82.597C43.7185 82.0377 43.2891 81.5959 42.7345 81.4219L40.4085 80.6852C40.3842 80.3595 40.3721 80.044 40.3721 79.732C40.3721 79.4201 40.3842 79.1046 40.4085 78.7822L42.7345 78.0456C43.2891 77.8716 43.7185 77.4298 43.8766 76.8705C44.115 76.0299 44.4538 75.2211 44.8853 74.4614C45.1786 73.9491 45.191 73.3227 44.9181 72.7993L43.7863 70.6189C43.9925 70.3831 44.2074 70.1526 44.4344 69.9256C44.6615 69.6985 44.892 69.4819 45.1277 69.2756L47.3047 70.4142C47.8276 70.6853 48.4523 70.6721 48.9634 70.3795C49.722 69.9487 50.5297 69.6106 51.3691 69.3726C51.9298 69.214 52.3733 68.7841 52.5494 68.2287L53.2842 65.9028C53.9189 65.8538 54.5562 65.8538 55.1907 65.9028L55.9256 68.2287C56.1016 68.7841 56.5451 69.214 57.1058 69.3726C57.9451 69.6106 58.7529 69.9487 59.5116 70.3795C60.0226 70.6721 60.6473 70.6851 61.1702 70.4142L63.3506 69.2807C63.5864 69.4869 63.8169 69.7018 64.0439 69.9288C64.271 70.1559 64.4859 70.3864 64.6921 70.6221L63.5568 72.7991C63.2853 73.3216 63.2977 73.9463 63.5896 74.4578C64.0213 75.2175 64.36 76.0263 64.5983 76.8669C64.7564 77.4262 65.1859 77.868 65.7404 78.042L68.0664 78.7786C68.0907 79.101 68.1028 79.4165 68.1028 79.7284C68.1028 80.0404 68.0907 80.3559 68.0664 80.6782L65.7404 81.4183Z"
fill="url(#paint2_linear_195_790)" /></g>
<defs>
<linearGradient id="paint0_linear_195_790" x1="104.5" y1="106.996" x2="3.54017"
y2="89.4765" gradientUnits="userSpaceOnUse">
<stop stop-color="#057CED" /><stop offset="0.491436" stop-color="#002EBA" /><stop offset="1" stop-color="#00238D" /></linearGradient>
<linearGradient id="paint1_linear_195_790" x1="61.1702" y1="87.0646" x2="47.71"
y2="84.729" gradientUnits="userSpaceOnUse">
<stop stop-color="#057CED" /><stop offset="0.491436" stop-color="#002EBA" /><stop offset="1" stop-color="#00238D" /></linearGradient>
<linearGradient id="paint2_linear_195_790" x1="71.5686" y1="98.0632"
x2="37.9188" y2="92.2232" gradientUnits="userSpaceOnUse">
<stop stop-color="#057CED" /><stop offset="0.491436" stop-color="#002EBA" /><stop offset="1" stop-color="#00238D" /></linearGradient>
<clipPath id="clip0_195_790">
<rect width="104" height="104" fill="white" transform="translate(0.5)" /></clipPath>
</defs>
</svg>