<svg width="104" height="104" viewBox="0 0 104 104" fill="none"
xmlns="http://www.w3.org/2000/svg">
<g clip-path="url(#clip0_195_762)">
<path
d="M103.999 10.3272C104.005 8.9148 103.443 7.55922 102.439 6.56589L97.4334 1.56007C96.4447 0.560578 95.097 -0.0011959 93.6911 1.91155e-06H93.6738C92.2765 0.000857491 90.9382 0.562973 89.9593 1.56007L67.2529 24.2665H22.5332V5.20004C22.5332 2.32803 20.205 1.91155e-06 17.3332 1.91155e-06H13.8666C6.21185 0.00855771 0.0085558 6.21185 0 13.8666V90.5677C0.433779 98.1641 6.76096 104.078 14.3693 103.999H98.7993C101.671 103.999 103.999 101.671 103.999 98.7993V29.4665C103.999 26.5947 101.671 24.2665 98.7993 24.2665H92.2127L102.439 14.0399C103.434 13.0604 103.996 11.7235 103.999 10.3272ZM62.0182 43.3331C61.6514 43.383 61.2826 43.254 61.0268 42.9864C60.7688 42.7301 60.6413 42.3704 60.6801 42.0088L61.337 36.1156C61.3646 35.9924 61.3993 35.8707 61.4411 35.7516L68.2686 42.5791C68.156 42.6034 68.0537 42.6589 67.9358 42.6727L62.0182 43.3331ZM71.099 40.5025L63.514 32.9157L82.4072 14.0226L89.9887 21.6024L71.099 40.5025ZM84.8513 11.5698L87.4218 9.00104L94.9998 16.5808L92.431 19.1513L84.8513 11.5698ZM3.46664 13.8666C3.47246 8.12527 8.12527 3.47229 13.8666 3.46664H17.3332C18.2904 3.46664 19.0666 4.24265 19.0666 5.19987V74.5326C19.0666 75.4899 18.2906 76.2659 17.3332 76.2659H13.8666C9.88451 76.2647 6.09498 77.9787 3.46664 80.97V13.8666ZM98.7993 27.7331C99.7565 27.7331 100.533 28.5091 100.533 29.4665V98.7993C100.533 99.7565 99.7567 100.533 98.7993 100.533H14.3693C8.64717 100.629 3.85353 96.2238 3.46664 90.514V90.1326C3.47246 84.3913 8.12527 79.7385 13.8666 79.7327H17.3332C20.205 79.7327 22.5331 77.4046 22.5331 74.5328V27.7331H63.786L59.8497 31.6695C58.7508 32.7523 58.0595 34.1813 57.8928 35.715L57.2359 41.6204C57.1818 42.1963 57.2366 42.7771 57.3971 43.3329H27.7331C26.7759 43.3329 25.9997 44.1089 25.9997 45.0663C25.9997 46.0235 26.7757 46.7995 27.7331 46.7995H32.9332V93.5992C32.9332 94.5564 33.7092 95.3326 34.6666 95.3326C35.6239 95.3326 36.4 94.5566 36.4 93.5992V69.3328H55.4664V83.1993H43.3331C42.3758 83.1993 41.5998 83.9753 41.5998 84.9325C41.5998 85.8898 42.3758 86.666 43.3331 86.666H77.9994C79.9141 86.666 81.4661 85.1139 81.4661 83.1993V57.1996C81.4661 56.2424 80.6901 55.4662 79.7328 55.4662C78.7756 55.4662 77.9994 56.2422 77.9994 57.1996V65.8661H36.3998V46.7997H61.8935C62.0626 46.8 62.2316 46.7908 62.3997 46.772L68.3223 46.0978C69.8256 45.9272 71.2287 45.2591 72.309 44.1998L88.7548 27.7333H98.7993V27.7331ZM77.9994 69.3328V83.1993H58.9328V69.3328H77.9994ZM99.9952 11.582L97.4507 14.1282L89.8727 6.55015L92.4189 4.00394C92.752 3.66205 93.2086 3.46835 93.686 3.46664C94.172 3.46784 94.637 3.66394 94.9772 4.01096L99.9901 9.01336C100.339 9.35662 100.534 9.82582 100.533 10.315C100.531 10.7925 100.337 11.2492 99.9952 11.582Z"
fill="white" /><path
d="M103.999 10.3272C104.005 8.9148 103.443 7.55922 102.439 6.56589L97.4334 1.56007C96.4447 0.560578 95.097 -0.0011959 93.6911 1.91155e-06H93.6738C92.2765 0.000857491 90.9382 0.562973 89.9593 1.56007L67.2529 24.2665H22.5332V5.20004C22.5332 2.32803 20.205 1.91155e-06 17.3332 1.91155e-06H13.8666C6.21185 0.00855771 0.0085558 6.21185 0 13.8666V90.5677C0.433779 98.1641 6.76096 104.078 14.3693 103.999H98.7993C101.671 103.999 103.999 101.671 103.999 98.7993V29.4665C103.999 26.5947 101.671 24.2665 98.7993 24.2665H92.2127L102.439 14.0399C103.434 13.0604 103.996 11.7235 103.999 10.3272ZM62.0182 43.3331C61.6514 43.383 61.2826 43.254 61.0268 42.9864C60.7688 42.7301 60.6413 42.3704 60.6801 42.0088L61.337 36.1156C61.3646 35.9924 61.3993 35.8707 61.4411 35.7516L68.2686 42.5791C68.156 42.6034 68.0537 42.6589 67.9358 42.6727L62.0182 43.3331ZM71.099 40.5025L63.514 32.9157L82.4072 14.0226L89.9887 21.6024L71.099 40.5025ZM84.8513 11.5698L87.4218 9.00104L94.9998 16.5808L92.431 19.1513L84.8513 11.5698ZM3.46664 13.8666C3.47246 8.12527 8.12527 3.47229 13.8666 3.46664H17.3332C18.2904 3.46664 19.0666 4.24265 19.0666 5.19987V74.5326C19.0666 75.4899 18.2906 76.2659 17.3332 76.2659H13.8666C9.88451 76.2647 6.09498 77.9787 3.46664 80.97V13.8666ZM98.7993 27.7331C99.7565 27.7331 100.533 28.5091 100.533 29.4665V98.7993C100.533 99.7565 99.7567 100.533 98.7993 100.533H14.3693C8.64717 100.629 3.85353 96.2238 3.46664 90.514V90.1326C3.47246 84.3913 8.12527 79.7385 13.8666 79.7327H17.3332C20.205 79.7327 22.5331 77.4046 22.5331 74.5328V27.7331H63.786L59.8497 31.6695C58.7508 32.7523 58.0595 34.1813 57.8928 35.715L57.2359 41.6204C57.1818 42.1963 57.2366 42.7771 57.3971 43.3329H27.7331C26.7759 43.3329 25.9997 44.1089 25.9997 45.0663C25.9997 46.0235 26.7757 46.7995 27.7331 46.7995H32.9332V93.5992C32.9332 94.5564 33.7092 95.3326 34.6666 95.3326C35.6239 95.3326 36.4 94.5566 36.4 93.5992V69.3328H55.4664V83.1993H43.3331C42.3758 83.1993 41.5998 83.9753 41.5998 84.9325C41.5998 85.8898 42.3758 86.666 43.3331 86.666H77.9994C79.9141 86.666 81.4661 85.1139 81.4661 83.1993V57.1996C81.4661 56.2424 80.6901 55.4662 79.7328 55.4662C78.7756 55.4662 77.9994 56.2422 77.9994 57.1996V65.8661H36.3998V46.7997H61.8935C62.0626 46.8 62.2316 46.7908 62.3997 46.772L68.3223 46.0978C69.8256 45.9272 71.2287 45.2591 72.309 44.1998L88.7548 27.7333H98.7993V27.7331ZM77.9994 69.3328V83.1993H58.9328V69.3328H77.9994ZM99.9952 11.582L97.4507 14.1282L89.8727 6.55015L92.4189 4.00394C92.752 3.66205 93.2086 3.46835 93.686 3.46664C94.172 3.46784 94.637 3.66394 94.9772 4.01096L99.9901 9.01336C100.339 9.35662 100.534 9.82582 100.533 10.315C100.531 10.7925 100.337 11.2492 99.9952 11.582Z"
fill="url(#paint0_linear_195_762)" /></g>
<defs>
<linearGradient id="paint0_linear_195_762" x1="103.999" y1="107" x2="3.0397"
y2="89.4817" gradientUnits="userSpaceOnUse">
<stop stop-color="#057CED" /><stop offset="0.491436" stop-color="#002EBA" /><stop offset="1" stop-color="#00238D" /></linearGradient>
<clipPath id="clip0_195_762">
<rect width="104" height="104" fill="white" /></clipPath>
</defs>
</svg>