<svg width="30" height="30" viewBox="0 0 30 30" fill="none" xmlns="http://www.w3.org/2000/svg">
<g clip-path="url(#clip0_7_6)">
<path d="M15 0.5C6.99187 0.5 0.5 6.99187 0.5 15C0.5 23.0081 6.99187 29.5 15 29.5C23.0081 29.5 29.5 23.0081 29.5 15C29.5 6.99187 23.0081 0.5 15 0.5Z" stroke="#242424"/>
<path d="M9.6464 14.6464C9.4512 14.8417 9.4512 15.1583 9.6464 15.3536L12.8284 18.5355C13.0237 18.7308 13.3403 18.7308 13.5355 18.5355C13.7308 18.3403 13.7308 18.0237 13.5355 17.8284L10.7071 15L13.5355 12.1716C13.7308 11.9763 13.7308 11.6597 13.5355 11.4645C13.3403 11.2692 13.0237 11.2692 12.8284 11.4645L9.6464 14.6464ZM21 14.5L10 14.5V15.5L21 15.5V14.5Z" fill="#242424"/>
</g>
<defs>
<clipPath id="clip0_7_6">
<rect width="30" height="30" fill="white" transform="matrix(-1 0 0 -1 30 30)"/>
</clipPath>
</defs>
</svg>
