<svg width="120" height="120" viewBox="0 0 120 120" fill="none" xmlns="http://www.w3.org/2000/svg">
<path d="M14.2553 52.0634L27.5447 75.0818C29.3973 78.2898 33.5001 79.3888 36.7082 77.5361C39.9164 75.6845 41.0162 71.5818 39.1636 68.3737L25.8743 45.3553C24.0216 42.1471 19.9188 41.0472 16.7108 42.8999C13.5026 44.7525 12.4027 48.8552 14.2553 52.0634Z" fill="#002EBA"/>
<path d="M6.70809 78.3981C10.4134 78.3981 13.4162 75.3953 13.4162 71.69C13.4162 67.9858 10.4134 64.9819 6.70809 64.9819C3.00288 64.9819 0 67.9858 0 71.69C0 75.3953 3.00288 78.3981 6.70809 78.3981Z" fill="#002EBA"/>
<path d="M67.744 52.0634L81.033 75.0818C82.8855 78.2898 86.9872 79.3888 90.1966 77.5361C93.4049 75.6845 94.5041 71.5818 92.6516 68.3737L79.3626 45.3553C77.51 42.1471 73.4073 41.0472 70.1979 42.8999C66.9896 44.7525 65.8914 48.8552 67.744 52.0634Z" fill="#002EBA"/>
<path d="M60.1925 78.3981C63.8981 78.3981 66.9005 75.3953 66.9005 71.69C66.9005 67.9858 63.8981 64.9819 60.1925 64.9819C56.4882 64.9819 53.4844 67.9858 53.4844 71.69C53.4844 75.3953 56.4882 78.3981 60.1925 78.3981Z" fill="#002EBA"/>
<path d="M94.1929 52.0634L107.482 75.0818C109.334 78.2898 113.437 79.3888 116.646 77.5361C119.854 75.6845 120.953 71.5818 119.101 68.3737L105.812 45.3553C103.959 42.1471 99.8562 41.0472 96.6479 42.8999C93.4396 44.7525 92.3404 48.8552 94.1929 52.0634Z" fill="#002EBA"/>
</svg>
