<svg width="145" height="60" viewBox="0 0 145 60" fill="none" xmlns="http://www.w3.org/2000/svg">
<path d="M41.4201 6.88322L50.4505 22.6162C51.7094 24.8089 54.4973 25.56 56.6773 24.2937C58.8573 23.0281 59.6047 20.224 58.3458 18.0312L49.3154 2.29829C48.0565 0.105552 45.2686 -0.646221 43.0886 0.620034C40.9086 1.88629 40.1612 4.69048 41.4201 6.88322Z" fill="#002EBA"/>
<path d="M36.2907 24.8757C38.8085 24.8757 40.849 22.8233 40.849 20.2908C40.849 17.759 38.8085 15.7059 36.2907 15.7059C33.7729 15.7059 31.7324 17.759 31.7324 20.2908C31.7324 22.8233 33.7729 24.8757 36.2907 24.8757Z" fill="#002EBA"/>
<path d="M77.7532 6.88322L86.7837 22.6162C88.0426 24.8089 90.8298 25.56 93.0105 24.2937C95.1905 23.0281 95.9372 20.224 94.679 18.0312L85.6486 2.29829C84.3897 0.105552 81.6018 -0.646221 79.4211 0.620034C77.2411 1.88629 76.4943 4.69048 77.7532 6.88322Z" fill="#002EBA"/>
<path d="M72.6335 24.8813C75.1513 24.8813 77.1918 22.8289 77.1918 20.2964C77.1918 17.7646 75.1513 15.7115 72.6335 15.7115C70.1164 15.7115 68.0752 17.7646 68.0752 20.2964C68.0752 22.8289 70.1164 24.8813 72.6335 24.8813Z" fill="#002EBA"/>
<path d="M95.7326 6.87809L104.763 22.611C106.022 24.8038 108.81 25.5548 110.99 24.2886C113.17 23.023 113.917 20.2188 112.658 18.0261L103.628 2.29316C102.369 0.100425 99.5811 -0.651348 97.4011 0.614907C95.2211 1.88116 94.4737 4.68536 95.7326 6.87809Z" fill="#002EBA"/>
<path d="M12.5357 40.1392L8.7788 50.5678H16.2925L12.5357 40.1392ZM19.183 59.2156L17.7019 55.11H7.37014L5.85276 59.2156H0L9.32038 34.9793H15.751L25.0351 59.2156H19.183Z" fill="white"/>
<path d="M27.9297 47.119C27.9297 39.4526 33.71 34.583 40.7539 34.583C45.7759 34.583 48.918 37.1272 50.7246 39.9974L46.4624 42.3229C45.3786 40.615 43.3189 39.1617 40.7539 39.1617C36.383 39.1617 33.2039 42.5409 33.2039 47.119C33.2039 51.6977 36.383 55.0769 40.7539 55.0769C42.8854 55.0769 44.9088 54.1319 45.8839 53.2239V50.3166H39.5258V45.8114H51.0139V55.1134C48.5576 57.8749 45.1249 59.6914 40.7539 59.6914C33.71 59.6914 27.9297 54.7502 27.9297 47.119Z" fill="white"/>
<path d="M66.8697 40.1395L63.1128 50.568H70.6272L66.8697 40.1395ZM73.517 59.2158L72.0359 55.1103H61.7041L60.1867 59.2158H54.334L63.6544 34.9795H70.0849L79.3691 59.2158H73.517Z" fill="white"/>
<path d="M88.9756 59.2158V39.5211H81.9316V34.9795H101.15V39.5211H94.1418V59.2158H88.9756Z" fill="white"/>
<path d="M104.939 48.4601H113.61V52.384H104.939V48.4601Z" fill="white"/>
<path d="M139.834 59.2161V42.2465L133.042 59.2161H130.802L124.011 42.2465V59.2161H118.881V34.9798H126.07L131.923 49.6232L137.775 34.9798H145V59.2161H139.834Z" fill="white"/>
</svg>
