<svg width="34" height="34" viewBox="0 0 34 34" fill="none" xmlns="http://www.w3.org/2000/svg">
<path d="M33.5 17C33.5 26.1127 26.1127 33.5 17 33.5C7.8873 33.5 0.5 26.1127 0.5 17C0.5 7.8873 7.8873 0.5 17 0.5C26.1127 0.5 33.5 7.8873 33.5 17Z" stroke="#0000FF"/>
<path d="M26 21.8333C26 22.2133 25.8952 22.5655 25.7272 22.8755L20.3596 16.7521L25.669 12.0158C25.8756 12.35 26 12.7425 26 13.1668V21.8333ZM17.5 17.8639L24.8879 11.273C24.5847 11.1038 24.2433 11 23.875 11H11.125C10.7563 11 10.4148 11.1038 10.1128 11.273L17.5 17.8639ZM19.5597 17.4652L17.8496 18.9918C17.7496 19.0806 17.625 19.125 17.5 19.125C17.3749 19.125 17.2504 19.0806 17.1504 18.9918L15.4399 17.4651L10.0044 23.6667C10.3302 23.8751 10.712 24 11.125 24H23.875C24.2879 24 24.6699 23.8751 24.9956 23.6667L19.5597 17.4652ZM9.33102 12.0158C9.12452 12.3499 9 12.7425 9 13.1668V21.8333C9 22.2133 9.10434 22.5656 9.2729 22.8755L14.6399 16.7511L9.33102 12.0158Z" fill="#0000FF"/>
</svg>
