<svg width="34" height="34" viewBox="0 0 34 34" fill="none" xmlns="http://www.w3.org/2000/svg">
<path d="M33.5 17C33.5 26.1127 26.1127 33.5 17 33.5C7.8873 33.5 0.5 26.1127 0.5 17C0.5 7.8873 7.8873 0.5 17 0.5C26.1127 0.5 33.5 7.8873 33.5 17Z" stroke="#0000FF"/>
<path d="M25.9638 22.1719C25.9158 22.027 25.6098 21.8135 25.0462 21.5321C24.8936 21.4434 24.676 21.3228 24.3945 21.1698C24.1128 21.0169 23.8571 20.8759 23.6278 20.7471C23.3981 20.6183 23.1828 20.4936 22.9818 20.373C22.9496 20.3489 22.849 20.2786 22.68 20.1616C22.5108 20.045 22.3681 19.9584 22.2511 19.9019C22.1344 19.8458 22.0197 19.8176 21.907 19.8176C21.746 19.8176 21.5449 19.9323 21.3035 20.1616C21.0622 20.3911 20.8407 20.6405 20.6396 20.9103C20.4384 21.1801 20.225 21.4294 19.9999 21.6589C19.7744 21.8884 19.5891 22.003 19.4444 22.003C19.3717 22.003 19.2811 21.9827 19.1726 21.9428C19.0641 21.9026 18.9815 21.8681 18.9248 21.8403C18.8687 21.8119 18.7723 21.7558 18.6354 21.671C18.4982 21.5865 18.4219 21.5402 18.4058 21.5321C17.303 20.9202 16.3573 20.2199 15.5683 19.4313C14.7797 18.6423 14.0792 17.6967 13.4675 16.5939C13.4594 16.5778 13.4131 16.5013 13.3286 16.3645C13.244 16.2276 13.1876 16.1312 13.1595 16.0747C13.1313 16.0184 13.0971 15.9358 13.0569 15.8272C13.0167 15.7186 12.9966 15.6281 12.9966 15.5555C12.9966 15.4107 13.1113 15.2255 13.3407 15.0001C13.5701 14.7749 13.8197 14.5615 14.0893 14.3604C14.3591 14.1593 14.6084 13.9379 14.8379 13.6965C15.0673 13.455 15.182 13.2539 15.182 13.0929C15.182 12.9803 15.1538 12.8655 15.0975 12.7488C15.0412 12.6319 14.9547 12.4892 14.8379 12.3201C14.7211 12.1511 14.6507 12.0505 14.6265 12.0182C14.5059 11.8171 14.3812 11.6018 14.2523 11.3724C14.1233 11.143 13.9826 10.8873 13.8296 10.6057C13.6767 10.3241 13.556 10.1067 13.4674 9.95378C13.1858 9.39045 12.9725 9.08445 12.8276 9.03633C12.7712 9.01218 12.6867 9 12.5741 9C12.3566 9 12.0729 9.04017 11.7228 9.12078C11.3725 9.20125 11.0969 9.28566 10.8957 9.37434C10.4932 9.54328 10.0666 10.0343 9.61576 10.8471C9.20524 11.6035 9 12.3523 9 13.0927C9 13.3098 9.01408 13.5211 9.04225 13.7266C9.07041 13.9318 9.12074 14.1632 9.19327 14.4209C9.26567 14.6784 9.32408 14.8697 9.36823 14.9943C9.41242 15.119 9.49493 15.3423 9.61572 15.6644C9.73633 15.9863 9.80886 16.1834 9.83301 16.2559C10.1147 17.0447 10.4488 17.749 10.8351 18.3688C11.4707 19.399 12.3382 20.4637 13.4369 21.5625C14.5357 22.6611 15.6002 23.5285 16.6306 24.1643C17.2504 24.5506 17.9549 24.8846 18.7437 25.1665C18.8162 25.1905 19.0133 25.2629 19.3352 25.3839C19.6572 25.5046 19.8806 25.5871 20.0053 25.6314C20.13 25.6757 20.3214 25.7341 20.5787 25.8067C20.8366 25.8792 21.0679 25.9295 21.2731 25.9579C21.4785 25.9857 21.6898 26 21.907 26C22.6474 26 23.3962 25.7946 24.1529 25.3842C24.9657 24.9336 25.4566 24.5069 25.6256 24.1042C25.7145 23.9031 25.7987 23.6274 25.8792 23.2772C25.9599 22.9271 26 22.6435 26 22.4261C26.0002 22.3131 25.9881 22.2287 25.9638 22.1719Z" fill="#0000FF"/>
</svg>
