<svg width="34" height="34" viewBox="0 0 34 34" fill="none" xmlns="http://www.w3.org/2000/svg">
<path d="M33.5 17C33.5 26.1127 26.1127 33.5 17 33.5C7.8873 33.5 0.5 26.1127 0.5 17C0.5 7.8873 7.8873 0.5 17 0.5C26.1127 0.5 33.5 7.8873 33.5 17Z" stroke="#2BA6E1"/>
<path d="M23.875 10.0448L8.375 16.0448C7.875 16.2448 7.875 16.9448 8.375 17.1448L12.275 18.3448L13.775 23.0448C13.975 23.5448 14.575 23.6448 14.875 23.3448L16.875 21.2448L20.875 24.1448C21.375 24.5448 22.075 24.2448 22.175 23.6448L24.975 10.9448C25.075 10.3448 24.475 9.84479 23.875 10.0448ZM21.875 12.8448L14.675 19.2448C14.575 19.3448 14.575 19.4448 14.575 19.4448L14.275 21.9448C14.275 22.0448 14.175 22.0448 14.175 21.9448L13.075 18.2448C12.975 18.0448 13.075 17.8448 13.275 17.8448L21.775 12.5448C21.875 12.4448 22.075 12.7448 21.875 12.8448Z" fill="#2BA6E1"/>
</svg>
