<svg width="34" height="34" viewBox="0 0 34 34" fill="none" xmlns="http://www.w3.org/2000/svg">
<path d="M33.5 17C33.5 26.1127 26.1127 33.5 17 33.5C7.8873 33.5 0.5 26.1127 0.5 17C0.5 7.8873 7.8873 0.5 17 0.5C26.1127 0.5 33.5 7.8873 33.5 17Z" stroke="#28E56E"/>
<path d="M21.8002 19.3C21.3002 18.8 20.6002 18.8 20.1002 19.3C19.7002 19.7 19.3002 20.1 18.9002 20.5C18.8002 20.6 18.7002 20.6 18.6002 20.6C18.4002 20.5 18.1002 20.4 17.8002 20.2C16.6002 19.5 15.7002 18.5 14.8002 17.5C14.4002 17 14.0002 16.4 13.8002 15.8C13.7002 15.7 13.7002 15.6 13.9002 15.5C14.3002 15.1 14.7002 14.7 15.1002 14.3C15.6002 13.8 15.6002 13.1 15.1002 12.5C14.8002 12.2 14.5002 11.9 14.1002 11.5C13.8002 11.2 13.4002 10.8 13.1002 10.5C12.6002 10 11.9002 10 11.4002 10.5C11.0002 10.9 10.6002 11.3 10.2002 11.7C9.80023 12.1 9.60023 12.5 9.60023 13C9.50023 13.8 9.70023 14.6 10.0002 15.4C10.6002 17 11.5002 18.4 12.6002 19.7C14.1002 21.5 15.9002 22.8 17.9002 23.8C18.9002 24.2 19.8002 24.6 20.9002 24.7C21.6002 24.8 22.2002 24.6 22.8002 24C23.2002 23.6 23.5002 23.3 23.9002 22.9C24.4002 22.4 24.4002 21.7 23.9002 21.1C23.1002 20.6 22.4002 20 21.8002 19.3Z" fill="#28E56E"/>
</svg>
